<?xml version="1.0" standalone="no"?>
<!DOCTYPE svg PUBLIC "-//W3C//DTD SVG 20010904//EN"
 "http://www.w3.org/TR/2001/REC-SVG-20010904/DTD/svg10.dtd">
<svg version="1.0" xmlns="http://www.w3.org/2000/svg"
 width="24" height="24" viewBox="0 0 512.000000 512.000000"
 preserveAspectRatio="xMidYMid meet">
<metadata>
Created by potrace 1.16, written by Peter Selinger 2001-2019
</metadata>
<g transform="translate(0.000000,512.000000) scale(0.100000,-0.100000)"
fill="#000000" stroke="none">
<path d="M1207 3846 c-32 -14 -77 -37 -98 -52 -77 -53 -155 -174 -178 -275 -7
-27 -11 -309 -11 -745 0 -612 2 -707 16 -755 39 -134 129 -246 244 -302 l65
-32 1033 -5 1034 -5 206 -455 207 -455 3 456 2 457 73 4 c171 9 325 145 381
337 14 48 16 143 16 755 0 447 -4 717 -11 746 -29 127 -125 252 -240 311 l-64
34 -1310 2 -1310 3 -58 -24z m2463 -576 l0 -100 -1110 0 -1110 0 0 100 0 100
1110 0 1110 0 0 -100z m0 -525 l0 -105 -1110 0 -1110 0 0 105 0 105 1110 0
1110 0 0 -105z m0 -510 l0 -95 -1110 0 -1110 0 0 95 0 95 1110 0 1110 0 0 -95z"/>
</g>
</svg>

