<?xml version="1.0" encoding="utf-8"?>
<!-- Generator: Adobe Illustrator 22.0.1, SVG Export Plug-In . SVG Version: 6.00 Build 0)  -->
<svg version="1.1" id="Layer_1" xmlns="http://www.w3.org/2000/svg" xmlns:xlink="http://www.w3.org/1999/xlink" x="0px" y="0px"
	 viewBox="0 0 512 512" style="enable-background:new 0 0 512 512;" xml:space="preserve">
<g>
	<path d="M257.7,335.2c0,11.3-4.5,22.2-12.5,30.2l-90.5,90.5c-16.7,16.7-43.7,16.7-60.3,0l-30.2-30.2c-16.7-16.7-16.7-43.7,0-60.3
		l90.5-90.5c8-8,18.8-12.5,30.2-12.5c1.4,0,2.9,0.1,4.3,0.2l33.9-33.9c-32.9-16.4-72.5-10-98.5,16L34,335.2
		c-33.3,33.3-33.3,87.4,0,120.7c0,0,0,0,0,0L64.2,486c33.3,33.3,87.4,33.3,120.7,0c0,0,0,0,0,0l90.5-90.5
		c29-29.1,33.3-74.7,10.1-108.6l-31.3,31.3C256.5,323.5,257.7,329.3,257.7,335.2L257.7,335.2z"/>
	<path d="M486,56.2L455.8,26c-33.3-33.3-87.4-33.3-120.7,0c0,0,0,0,0,0l-90.5,90.5c-27.5,27.5-32.9,70.2-13.2,103.7l32.3-32.3
		c-1-3.6-1.5-7.3-1.5-11c0-11.3,4.5-22.2,12.5-30.2l90.5-90.5c16.7-16.7,43.7-16.7,60.3,0l30.2,30.2c16.7,16.7,16.7,43.7,0,60.3
		l-90.5,90.5c-10.8,10.8-26.5,15-41.2,11l-32.3,32.3c33.5,19.7,76.2,14.3,103.7-13.2l90.5-90.5C519.3,143.5,519.3,89.5,486,56.2
		C486,56.2,486,56.2,486,56.2z"/>
	<path d="M144.9,336.9l202.6-202.6l30.2,30.2L175,367.1L144.9,336.9z"/>
</g>
</svg>
